<?xml version="1.0" encoding="utf-8"?>
<!-- Generator: Adobe Illustrator 25.2.0, SVG Export Plug-In . SVG Version: 6.00 Build 0)  -->
<svg version="1.1" id="Layer_1" xmlns="http://www.w3.org/2000/svg" xmlns:xlink="http://www.w3.org/1999/xlink" x="0px" y="0px"
	 viewBox="0 0 335 283" style="enable-background:new 0 0 335 283;" xml:space="preserve">
<style type="text/css">
	
		.st0{fill:none;stroke:#EFEEEE;stroke-width:3;stroke-linecap:round;stroke-linejoin:round;stroke-miterlimit:10;stroke-dasharray:6,8;}
	.st1{fill:#1B64AE;stroke:#18599C;stroke-width:3;stroke-miterlimit:10;}
	.st2{fill:#E0F1F9;}
	.st3{fill:#1B64AE;}
	.st4{fill:#4297D3;}
	.st5{fill:#18599C;}
	.st6{fill:#66C7EE;}
	.st7{fill:#FFFFFF;}
	.st8{fill:#F1C410;}
	.st9{fill:#F1940E;}
	.st10{fill:#ADADAD;}
</style>
<g>
	<g>
		<polyline class="st0" points="112.5,72.8 75.1,72.8 75.1,117.3 		"/>
		<polyline class="st0" points="261,105.4 261,125.2 218.3,125.2 218.3,154.8 188.7,154.8 		"/>
		<polyline class="st0" points="261,190 213,190 213,245.9 148.3,245.9 		"/>
		<path class="st1" d="M160,91.1h-58.1c-1.1,0-2-0.9-2-2V48.3c0-1.1,0.9-2,2-2L130,23.9l30.1,21.7c1.1,0,2,0.9,2,2v41.6
			C162,90.2,161.1,91.1,160,91.1z"/>
		<rect x="111.8" y="72.1" class="st2" width="36.9" height="8.1"/>
		<rect x="114" y="74.6" class="st3" width="21.6" height="3"/>
		<circle class="st3" cx="145" cy="76" r="2.2"/>
		<rect x="111.5" y="52.4" class="st2" width="36.9" height="8.1"/>
		<rect x="113.8" y="54.9" class="st3" width="21.6" height="3"/>
		<circle class="st3" cx="144.8" cy="56.3" r="2.2"/>
		<rect x="111.5" y="62.3" class="st2" width="36.9" height="8.1"/>
		<rect x="113.8" y="64.8" class="st3" width="21.6" height="3"/>
		<circle class="st3" cx="144.8" cy="66.2" r="2.2"/>
		<g>
			<path class="st4" d="M91,60c-0.4,0-0.9-0.2-1.2-0.6l-2.9-3.6c-0.5-0.6-0.4-1.6,0.2-2.1l42.1-33.9c0.3-0.2,0.6-0.3,0.9-0.3
				c0.3,0,0.6,0.1,0.9,0.3l16,12.1V21c0-0.8,0.7-1.5,1.5-1.5h10.7c0.8,0,1.5,0.7,1.5,1.5v23.1l12.8,9.7c0.3,0.2,0.5,0.6,0.6,1
				s0,0.8-0.3,1.1l-2.7,3.6c-0.2,0.3-0.6,0.5-1,0.6c-0.1,0-0.1,0-0.2,0c-0.3,0-0.7-0.1-0.9-0.3l-38.5-30.4L92,59.7
				C91.7,59.9,91.4,60,91,60z"/>
			<path class="st5" d="M159.3,21v23.8l13.4,10.1l-2.7,3.6l-39.6-31L91,58.5l-2.9-3.6L130.2,21l18.4,13.9V21H159.3 M130.2,18
				c-0.7,0-1.3,0.2-1.9,0.7L86.2,52.6c-1.3,1-1.5,2.9-0.5,4.2l2.9,3.6c0.6,0.7,1.5,1.1,2.3,1.1c0.6,0,1.3-0.2,1.9-0.6l37.7-29.6
				l37.7,29.6c0.5,0.4,1.2,0.6,1.9,0.6c0.1,0,0.3,0,0.4,0c0.8-0.1,1.5-0.5,2-1.2l2.7-3.6c0.5-0.6,0.7-1.4,0.6-2.2
				c-0.1-0.8-0.5-1.5-1.2-2l-12.3-9.2V21c0-1.7-1.3-3-3-3h-10.7c-1.7,0-3,1.3-3,3v7.9L132,18.6C131.5,18.2,130.9,18,130.2,18
				L130.2,18z"/>
		</g>
		<path class="st6" d="M302.2,93.2c0-7.9-5.4-14.5-12.7-16.5c0.8-1.7,1.3-3.6,1.3-5.5c0-7.2-5.8-13-13-13c-2.6,0-5.1,0.8-7.1,2.1
			c-3.6-7.6-11.3-12.8-20.3-12.8c-12.4,0-22.5,10.1-22.5,22.5c0,0.8,0,1.6,0.1,2.4c-7.1,3-12.1,10-12.1,18.2
			c0,10.9,8.8,19.7,19.7,19.7c0.5,0,1,0,1.5-0.1h46.8c0.5,0,0.9,0.1,1.4,0.1s0.9,0,1.4-0.1h0.1l0,0
			C295.4,109.4,302.2,102.1,302.2,93.2z"/>
		<g>
			<path class="st7" d="M243.4,220.9c-4.4,0-8-3.6-8-8V188c0-4.4,3.6-8,8-8h41.7c4.4,0,8,3.6,8,8v24.9c0,4.4-3.6,8-8,8H243.4z"/>
			<path class="st8" d="M285,182c3.3,0,6,2.7,6,6v24.9c0,3.3-2.7,6-6,6h-41.7c-3.3,0-6-2.7-6-6V188c0-3.3,2.7-6,6-6H285 M285,178
				h-41.7c-5.5,0-10,4.5-10,10v24.9c0,5.5,4.5,10,10,10H285c5.5,0,10-4.5,10-10V188C295,182.5,290.5,178,285,178L285,178z"/>
		</g>
		<path class="st9" d="M305.7,225.2h-15.5c-1.1,0-2-0.9-2-2v-31.1c0-1.1,0.9-2,2-2h15.5c1.1,0,2,0.9,2,2v31.1
			C307.7,224.3,306.8,225.2,305.7,225.2z"/>
		<path class="st7" d="M304.9,219.2h-13.8c-0.6,0-1-0.5-1-1v-21.1c0-0.6,0.4-1,1-1h13.8c0.5,0,1,0.4,1,1v21.1
			C305.9,218.8,305.4,219.2,304.9,219.2z"/>
		<path class="st7" d="M300.1,194.2h-4.3c-0.2,0-0.3-0.2-0.3-0.3l0,0c0-0.2,0.2-0.3,0.3-0.3h4.3c0.2,0,0.3,0.2,0.3,0.3l0,0
			C300.5,194,300.3,194.2,300.1,194.2z"/>
		<circle class="st7" cx="298" cy="222.1" r="1.6"/>
		<path class="st9" d="M309.9,226.8v2.8c0,3.8-3.4,6.9-7.5,6.9h-72.2c-4.2,0-7.5-3.1-7.5-6.9v-2.8"/>
		<path class="st9" d="M259.7,200.6c0,0.7,0,1.5,0.1,2.3h-4.2c-0.2-0.8-0.3-1.6-0.3-2.3c0-0.8,0.1-1.5,0.3-2.3h4.2
			C259.7,199.1,259.7,199.9,259.7,200.6z M261.7,191.9c-0.9,1.2-1.5,2.9-1.8,5.2H256c0.5-1.2,1.3-2.3,2.3-3.2
			C259.3,193,260.4,192.3,261.7,191.9z M256,204.1h3.9c0.4,2.2,1,4,1.8,5.2c-1.3-0.4-2.4-1-3.4-2S256.5,205.4,256,204.1z
			 M260.8,200.6c0-0.8,0-1.6,0.1-2.3h6.8c0.1,0.8,0.1,1.6,0.1,2.3c0,0.8,0,1.6-0.1,2.3h-6.8C260.9,202.2,260.8,201.4,260.8,200.6z
			 M267.5,197.1h-6.4c0.3-1.7,0.7-3,1.3-4c0.6-1,1.2-1.5,1.9-1.5s1.3,0.5,1.9,1.5S267.3,195.5,267.5,197.1z M261.1,204.1h6.4
			c-0.3,1.7-0.7,3-1.3,4c-0.6,1-1.2,1.5-1.9,1.5s-1.3-0.5-1.9-1.5C261.8,207.1,261.4,205.8,261.1,204.1z M272.7,197.1h-3.9
			c-0.4-2.2-1-4-1.8-5.2c1.3,0.4,2.4,1,3.4,2C271.4,194.8,272.1,195.9,272.7,197.1z M266.9,209.3c0.9-1.2,1.5-2.9,1.8-5.2h3.9
			c-0.5,1.2-1.3,2.3-2.3,3.2C269.3,208.3,268.2,208.9,266.9,209.3z M273,198.3c0.2,0.8,0.3,1.6,0.3,2.3c0,0.8-0.1,1.6-0.3,2.3h-4.2
			c0.1-0.8,0.1-1.6,0.1-2.3c0-0.8,0-1.5-0.1-2.3H273z"/>
	</g>
	<g>
		<circle class="st7" cx="108.9" cy="181.3" r="81.3"/>
		<path class="st10" d="M108.9,102.5c43.4,0,78.8,35.3,78.8,78.8S152.3,260,108.9,260s-78.8-35.3-78.8-78.8S65.4,102.5,108.9,102.5
			 M108.9,97.5c-46.2,0-83.7,37.5-83.7,83.7S62.6,265,108.9,265s83.7-37.5,83.7-83.7S155.1,97.5,108.9,97.5L108.9,97.5z"/>
	</g>
	<g>
		<g>
			<path class="st10" d="M109.1,158.3c12.4,0,23.7,4.4,33.6,13.2c4.3,3.8,7.4,7.7,9.3,10.3c-1.9,2.7-5.1,6.5-9.4,10.4
				c-9.9,8.7-21.2,13.2-33.5,13.2c-12,0-23.2-4.4-33.2-13.2c-4.4-3.9-7.7-7.8-9.7-10.5c1.8-2.6,4.9-6.5,9.1-10.3
				C85.1,162.7,96.5,158.3,109.1,158.3 M109.1,151.3c-35.3,0-51.3,30.5-51.3,30.5s17.7,30.5,51.3,30.5c34.2,0,51.3-30.5,51.3-30.5
				S143.7,151.3,109.1,151.3L109.1,151.3z"/>
		</g>
	</g>
	<g>
		<path class="st10" d="M109.1,173.8c4.3,0,7.9,3.5,7.9,7.9c0,4.3-3.5,7.9-7.9,7.9s-7.9-3.5-7.9-7.9
			C101.2,177.4,104.7,173.8,109.1,173.8 M109.1,163.8c-9.9,0-17.9,8-17.9,17.9s8,17.9,17.9,17.9s17.9-8,17.9-17.9
			S118.9,163.8,109.1,163.8L109.1,163.8z"/>
	</g>
</g>
</svg>
