<?xml version="1.0" encoding="utf-8"?>
<!-- Generator: Adobe Illustrator 25.2.0, SVG Export Plug-In . SVG Version: 6.00 Build 0)  -->
<svg version="1.1" id="NET" xmlns="http://www.w3.org/2000/svg" xmlns:xlink="http://www.w3.org/1999/xlink" x="0px" y="0px"
	 viewBox="0 0 512 512" style="enable-background:new 0 0 512 512;" xml:space="preserve">
<style type="text/css">
	.st0{fill:#FFFFFF;}
	.st1{fill:#9DC825;}
</style>
<g id="App">
	<g id="NET-BG">
		<circle class="st0" cx="256" cy="256.1" r="242.7"/>
		<path class="st1" d="M256,20.9c129.6,0,235.2,105.4,235.2,235.2S385.6,491.1,256,491.1S20.8,385.7,20.8,255.9S126.1,20.9,256,20.9
			 M256,6C118.1,6,6.1,117.9,6.1,255.9S117.8,506,256,506s249.9-111.9,249.9-249.9S393.9,6,256,6L256,6z"/>
	</g>
</g>
<g>
	<g>
		<g>
			<path class="st1" d="M256,189.6c35,0,67,12.4,95,37.3c12.2,10.7,20.9,21.8,26.3,29.1c-5.4,7.6-14.4,18.4-26.6,29.4
				c-28,24.6-59.9,37.3-94.7,37.3c-33.9,0-65.6-12.4-93.8-37.3c-12.4-11-21.8-22-27.4-29.7c5.1-7.3,13.8-18.4,25.7-29.1
				C188.2,202,220.4,189.6,256,189.6 M256,169.8c-99.8,0-145,86.2-145,86.2s50,86.2,145,86.2c96.7,0,145-86.2,145-86.2
				S353.8,169.8,256,169.8L256,169.8z"/>
		</g>
	</g>
	<g>
		<path class="st1" d="M256,233.4c12.2,0,22.3,9.9,22.3,22.3c0,12.2-9.9,22.3-22.3,22.3s-22.3-9.9-22.3-22.3
			C233.7,243.6,243.6,233.4,256,233.4 M256,205.1c-28,0-50.6,22.6-50.6,50.6s22.6,50.6,50.6,50.6s50.6-22.6,50.6-50.6
			S283.7,205.1,256,205.1L256,205.1z"/>
	</g>
</g>
<g>
</g>
<g>
</g>
<g>
</g>
<g>
</g>
<g>
</g>
<g>
</g>
</svg>
